2024-08-27 12:31:06,228 - INFO - FFmpeg high-quality batch processing script started
2024-08-27 12:31:06,228 - INFO - Starting high-quality video processing for dataset/yamaha_best.mp4
2024-08-27 12:31:06,228 - INFO - Executing FFmpeg command: ffmpeg -y -i dataset/yamaha_best.mp4 -preset veryslow -crf 18 -maxrate 6000k -bufsize 9000k -vf unsharp=5:5:1.0,scale='min(1440,iw)':'-2' -c:v libx264 -pix_fmt yuv420p -c:a aac -b:a 192k -movflags +faststart out_without_10_bits/processed_yamaha_best.mp4
2024-08-27 12:31:06,309 - DEBUG - ffmpeg version 7.0.2 Copyright (c) 2000-2024 the FFmpeg developers
2024-08-27 12:31:06,309 - DEBUG - built with Apple clang version 15.0.0 (clang-1500.3.9.4)
2024-08-27 12:31:06,309 - DEBUG - configuration: --prefix=/opt/homebrew/Cellar/ffmpeg/7.0.2 --enable-shared --enable-pthreads --enable-version3 --cc=clang --host-cflags= --host-ldflags='-Wl,-ld_classic' --enable-ffplay --enable-gnutls --enable-gpl --enable-libaom --enable-libaribb24 --enable-libbluray --enable-libdav1d --enable-libharfbuzz --enable-libjxl --enable-libmp3lame --enable-libopus --enable-librav1e --enable-librist --enable-librubberband --enable-libsnappy --enable-libsrt --enable-libssh --enable-libsvtav1 --enable-libtesseract --enable-libtheora --enable-libvidstab --enable-libvmaf --enable-libvorbis --enable-libvpx --enable-libwebp --enable-libx264 --enable-libx265 --enable-libxml2 --enable-libxvid --enable-lzma --enable-libfontconfig --enable-libfreetype --enable-frei0r --enable-libass --enable-libopencore-amrnb --enable-libopencore-amrwb --enable-libopenjpeg --enable-libspeex --enable-libsoxr --enable-libzmq --enable-libzimg --disable-libjack --disable-indev=jack --enable-videotoolbox --enable-audiotoolbox --enable-neon
2024-08-27 12:31:06,310 - DEBUG - libavutil      59.  8.100 / 59.  8.100
2024-08-27 12:31:06,310 - DEBUG - libavcodec     61.  3.100 / 61.  3.100
2024-08-27 12:31:06,310 - DEBUG - libavformat    61.  1.100 / 61.  1.100
2024-08-27 12:31:06,310 - DEBUG - libavdevice    61.  1.100 / 61.  1.100
2024-08-27 12:31:06,310 - DEBUG - libavfilter    10.  1.100 / 10.  1.100
2024-08-27 12:31:06,310 - DEBUG - libswscale      8.  1.100 /  8.  1.100
2024-08-27 12:31:06,310 - DEBUG - libswresample   5.  1.100 /  5.  1.100
2024-08-27 12:31:06,310 - DEBUG - libpostproc    58.  1.100 / 58.  1.100
2024-08-27 12:31:06,358 - DEBUG - Input #0, mov,mp4,m4a,3gp,3g2,mj2, from 'dataset/yamaha_best.mp4':
2024-08-27 12:31:06,358 - DEBUG - Metadata:
2024-08-27 12:31:06,358 - DEBUG - major_brand     : isom
2024-08-27 12:31:06,358 - DEBUG - minor_version   : 512
2024-08-27 12:31:06,358 - DEBUG - compatible_brands: isomiso2avc1mp41
2024-08-27 12:31:06,358 - DEBUG - encoder         : Lavf61.1.100
2024-08-27 12:31:06,358 - DEBUG - Duration: 00:00:20.01, start: 0.000000, bitrate: 2174 kb/s
2024-08-27 12:31:06,358 - DEBUG - Stream #0:0[0x1](eng): Video: h264 (High 10) (avc1 / 0x31637661), yuv420p10le(tv, bt709, progressive), 3374x4500, 1993 kb/s, 30 fps, 30 tbr, 15360 tbn (default)
2024-08-27 12:31:06,358 - DEBUG - Metadata:
2024-08-27 12:31:06,358 - DEBUG - handler_name    : ?Mainconcept Video Media Handler
2024-08-27 12:31:06,358 - DEBUG - vendor_id       : [0][0][0][0]
2024-08-27 12:31:06,358 - DEBUG - encoder         : Lavc61.3.100 libx264
2024-08-27 12:31:06,358 - DEBUG - Stream #0:1[0x2](eng): Audio: aac (LC) (mp4a / 0x6134706D), 48000 Hz, stereo, fltp, 173 kb/s (default)
2024-08-27 12:31:06,358 - DEBUG - Metadata:
2024-08-27 12:31:06,358 - DEBUG - handler_name    : #Mainconcept MP4 Sound Media Handler
2024-08-27 12:31:06,358 - DEBUG - vendor_id       : [0][0][0][0]
2024-08-27 12:31:06,363 - DEBUG - Stream mapping:
2024-08-27 12:31:06,363 - DEBUG - Stream #0:0 -> #0:0 (h264 (native) -> h264 (libx264))
2024-08-27 12:31:06,363 - DEBUG - Stream #0:1 -> #0:1 (aac (native) -> aac (native))
2024-08-27 12:31:06,363 - DEBUG - Press [q] to stop, [?] for help
2024-08-27 12:31:06,468 - DEBUG - [libx264 @ 0x153204fa0] using cpu capabilities: ARMv8 NEON
2024-08-27 12:31:06,472 - DEBUG - [libx264 @ 0x153204fa0] profile High, level 5.1, 4:2:0, 8-bit
2024-08-27 12:31:06,472 - DEBUG - [libx264 @ 0x153204fa0] 264 - core 164 r3108 31e19f9 - H.264/MPEG-4 AVC codec - Copyleft 2003-2023 - http://www.videolan.org/x264.html - options: cabac=1 ref=16 deblock=1:0:0 analyse=0x3:0x133 me=umh subme=10 psy=1 psy_rd=1.00:0.00 mixed_ref=1 me_range=24 chroma_me=1 trellis=2 8x8dct=1 cqm=0 deadzone=21,11 fast_pskip=1 chroma_qp_offset=-2 threads=18 lookahead_threads=3 sliced_threads=0 nr=0 decimate=1 interlaced=0 bluray_compat=0 constrained_intra=0 bframes=8 b_pyramid=2 b_adapt=2 b_bias=0 direct=3 weightb=1 open_gop=0 weightp=2 keyint=250 keyint_min=25 scenecut=40 intra_refresh=0 rc_lookahead=60 rc=crf mbtree=1 crf=18.0 qcomp=0.60 qpmin=0 qpmax=69 qpstep=4 vbv_maxrate=6000 vbv_bufsize=9000 crf_max=0.0 nal_hrd=none filler=0 ip_ratio=1.40 aq=1:1.00
2024-08-27 12:31:06,472 - DEBUG - Output #0, mp4, to 'out_without_10_bits/processed_yamaha_best.mp4':
2024-08-27 12:31:06,472 - DEBUG - Metadata:
2024-08-27 12:31:06,472 - DEBUG - major_brand     : isom
2024-08-27 12:31:06,472 - DEBUG - minor_version   : 512
2024-08-27 12:31:06,472 - DEBUG - compatible_brands: isomiso2avc1mp41
2024-08-27 12:31:06,472 - DEBUG - encoder         : Lavf61.1.100
2024-08-27 12:31:06,472 - DEBUG - Stream #0:0(eng): Video: h264 (avc1 / 0x31637661), yuv420p(tv, bt709, progressive), 1440x1920, q=2-31, 30 fps, 15360 tbn (default)
2024-08-27 12:31:06,472 - DEBUG - Metadata:
2024-08-27 12:31:06,472 - DEBUG - handler_name    : ?Mainconcept Video Media Handler
2024-08-27 12:31:06,472 - DEBUG - vendor_id       : [0][0][0][0]
2024-08-27 12:31:06,472 - DEBUG - encoder         : Lavc61.3.100 libx264
2024-08-27 12:31:06,472 - DEBUG - Side data:
2024-08-27 12:31:06,472 - DEBUG - cpb: bitrate max/min/avg: 6000000/0/0 buffer size: 9000000 vbv_delay: N/A
2024-08-27 12:31:06,472 - DEBUG - Stream #0:1(eng): Audio: aac (LC) (mp4a / 0x6134706D), 48000 Hz, stereo, fltp, 192 kb/s (default)
2024-08-27 12:31:06,472 - DEBUG - Metadata:
2024-08-27 12:31:06,472 - DEBUG - handler_name    : #Mainconcept MP4 Sound Media Handler
2024-08-27 12:31:06,472 - DEBUG - vendor_id       : [0][0][0][0]
2024-08-27 12:31:06,472 - DEBUG - encoder         : Lavc61.3.100 aac
2024-08-27 12:31:07,374 - DEBUG - frame=    0 fps=0.0 q=0.0 size=       0KiB time=N/A bitrate=N/A speed=N/A
2024-08-27 12:31:07,879 - DEBUG - frame=    0 fps=0.0 q=0.0 size=       0KiB time=N/A bitrate=N/A speed=N/A
2024-08-27 12:31:08,384 - DEBUG - frame=   10 fps=6.6 q=24.0 size=       0KiB time=00:00:00.26 bitrate=   1.4kbits/s speed=0.176x
2024-08-27 12:31:08,885 - DEBUG - frame=   38 fps= 19 q=24.0 size=       0KiB time=00:00:01.20 bitrate=   0.3kbits/s speed=0.594x
2024-08-27 12:31:09,390 - DEBUG - frame=   74 fps= 29 q=24.0 size=       0KiB time=00:00:02.40 bitrate=   0.2kbits/s speed=0.952x
